<svg width="48" height="48" xmlns="http://www.w3.org/2000/svg">
  <rect width="100%" height="100%" rx="24" fill="#ffffff"/>
  <path d="M24 20c2.2 0 4.2.7 5.8 1.9l4.4-4.4C31.7 15.1 28.1 13.5 24 13.5c-7.2 0-13.5 4.9-15.3 11.5l5.1 4c1.2-3.6 4.6-6 8.2-6z" fill="#EA4335"/>
  <path d="M46.5 24.5c0-1.5-.2-3.1-.5-4.5H24v9h12.7c-.5 2.9-2.3 5.3-4.8 6.9l5 3.9c2.9-2.7 4.6-6.7 4.6-11.3z" fill="#4285F4"/>
  <path d="M13.8 29l-5.1-4C7.6 27.9 7 30.4 7 33c0 2.6.6 5.1 1.7 7.3l5.1-4c-.7-1.5-1.1-3.2-1.1-5 0-.8.1-1.6.2-2.3z" fill="#FBBC05"/>
  <path d="M24 47c4.1 0 7.7-1.4 10.3-3.7l-5-3.9c-1.4.9-3.2 1.5-5.3 1.5-3.6 0-7-2.4-8.2-6l-5.1 4C12.5 44.1 18.8 47 24 47z" fill="#34A853"/>
</svg>