<svg id="Capa_1" enable-background="new 0 0 512 512" height="512" viewBox="0 0 512 512" width="512" xmlns="http://www.w3.org/2000/svg"><g><g><path d="m256 392h-240v-360h330v240.557l-11.309 2.871c-46.333 11.792-78.691 53.554-78.691 101.572z" fill="#f3f5f9"/></g><path d="m181 392h75v-15c0-48.018 32.358-89.78 78.691-101.572l11.309-2.871v-240.557h-165z" fill="#e1e6f0"/><circle cx="361" cy="377" fill="#ff798f" r="135"/><g id="Appointment_1_"><g><path d="m76 0h30v92h-30z" fill="#4d5e80"/></g><g><path d="m166 0h30v92h-30z" fill="#4d5e80"/></g><g><path d="m256 0h30v92h-30z" fill="#3d4566"/></g><g><path d="m106 152h30v30h-30z" fill="#82e1d8"/></g><g><path d="m166 152h30v30h-30z" fill="#82e1d8"/></g><g><path d="m226 152h30v30h-30z" fill="#6dcdd6"/></g><g><path d="m106 212h30v30h-30z" fill="#82e1d8"/></g><g><path d="m166 212h30v30h-30z" fill="#82e1d8"/></g><g><path d="m226 212h30v30h-30z" fill="#6dcdd6"/></g><g><path d="m106 272h30v30h-30z" fill="#82e1d8"/></g><g><path d="m166 272h30v30h-30z" fill="#82e1d8"/></g></g><path d="m496 377c0-74.559-60.441-135-135-135v270c74.559 0 135-60.441 135-135z" fill="#f25872"/><path d="m181 0h15v92h-15z" fill="#3d4566"/><g fill="#6dcdd6"><path d="m181 272h15v30h-15z"/><path d="m181 212h15v30h-15z"/><path d="m181 152h15v30h-15z"/></g><circle cx="361" cy="377" fill="#f3f5f9" r="105"/><path d="m466 377c0-57.891-47.109-105-105-105v210c57.891 0 105-47.109 105-105z" fill="#e1e6f0"/><g><g><path d="m406 392h-60v-90h30v60h30z" fill="#4d5e80"/></g></g><path d="m376 302h-15v90h45v-30h-30z" fill="#3d4566"/></g></svg>