<svg id="Capa_1" enable-background="new 0 0 512 512" height="512" viewBox="0 0 512 512" width="512" xmlns="http://www.w3.org/2000/svg"><path d="m235.984 449.499 115.656 20.016h160.36v-235.751l-276.016-20.016z" fill="#efe2dd"/><path d="m0 233.764v235.751h160.36l95.64-20.016v-235.751z" fill="#fff5f5"/><path d="m256 74.377-20.016 79.693 20.016 79.694h256v-159.387z" fill="#87a0af"/><path d="m0 74.377h256v159.386h-256z" fill="#b4d2d7"/><path d="m351.64 42.485h-95.64l-20.016 95.639 20.016 95.64h95.64z" fill="#1865a1"/><path d="m160.36 42.485h95.64v191.279h-95.64z" fill="#3d9ae2"/><path d="m271 90.285h-30v32.839h-32.839v30h32.839v32.839h30v-32.839h32.839v-30h-32.839z" fill="#fff5f5"/><path d="m383.533 293.18h53.154v30h-53.154z" fill="#495959"/><path d="m351.64 469.515v-176.335h-95.64l-20.016 156.319 85.632 20.016z" fill="#1865a1"/><path d="m160.36 469.515h30.024l65.616-20.016v-156.319h-95.64z" fill="#3d9ae2"/><path d="m256 469.515h65.616v-146.311h-65.616l-20.016 73.156z" fill="#b4d2d7"/><path d="m190.384 323.204h65.616v146.312h-65.616z" fill="#e1ebf0"/></svg>