<svg id="Capa_1" enable-background="new 0 0 484 484" height="512" viewBox="0 0 484 484" width="512" xmlns="http://www.w3.org/2000/svg"><g><path d="m87.696 155.053v170.205h154.304l21-168.508-21-156.494c-85.265.271-154.304 69.469-154.304 154.797z" fill="#956641"/><path d="m397.304 155.053c0-85.495-69.308-154.803-154.804-154.803-.167 0-.333.006-.5.006v325.002h155.304z" fill="#895d3c"/><path d="m197 272.476c-14.319 2.393-28.191 5.905-41.5 10.432l-12.5 16.842-17.5-4.48c-74.805 36.573-125.5 107.263-125.5 188.48h242l17-94-17-117.274z" fill="#fbf4f4"/><path d="m362.5 297.258-16.5 9.492-13.5-22.446c-14.522-5.206-29.741-9.194-45.5-11.828h-45v211.274h242c0-79.763-48.891-149.382-121.5-186.492z" fill="#e9e9ee"/><path d="m155.5 409.75v-126.842c-10.361 3.524-20.38 7.658-30 12.362v114.48z" fill="#4bc0ff"/><path d="m362.5 401.75v-104.492c-9.602-4.908-19.626-9.235-30-12.954v117.446z" fill="#4b8dff"/><path d="m197 222.75v49.726l45 111.163 10-113.889-10-47z" fill="#ffb89b"/><path d="m242 222.75v160.889l45-111.163v-49.726z" fill="#ffa07a"/><path d="m151.654 140.596v22.308c0 49.926 40.483 90.569 90.346 90.84l10-105.994-10-97.994c-49.863.271-90.346 40.915-90.346 90.84z" fill="#ffcfbc"/><path d="m333.346 125.596h-15c-33.55 0-60.846-27.295-60.846-60.846v-15h-15c-.167 0-.333.005-.5.006v203.987c.167.001.333.006.5.006 50.093 0 90.846-40.753 90.846-90.846z" fill="#ffb89b"/><circle cx="347.5" cy="437.25" fill="#d0d0d5" r="41.5"/><path d="m186 474.75h-30v-37c0-8.271-6.729-15-15-15s-15 6.729-15 15v35h-30v-35c0-24.813 20.187-45 45-45s45 20.187 45 45z" fill="#e9e9ee"/></g></svg>