<svg id="Capa_1" enable-background="new 0 0 512 512" height="512" viewBox="0 0 512 512" width="512" xmlns="http://www.w3.org/2000/svg"><g><g><path d="m181 271v231.299l51.301-51.299h279.699v-180z" fill="#f3f5f9"/></g><g><path d="m0 0v181h279.699l51.301 51.299v-232.299z" fill="#f3f5f9"/></g><circle cx="436" cy="76" fill="#ffe1cc" r="45"/><path d="m481 76c0-24.814-20.186-45-45-45v90c24.814 0 45-20.186 45-45z" fill="#ffccb3"/><path d="m436 121c-41.367 0-75 33.647-75 75v45h75 76v-45c0-41.353-34.633-75-76-75z" fill="#ff79a6"/><path d="m512 196c0-41.353-34.633-75-76-75v120h76z" fill="#d94c7b"/><circle cx="76" cy="346" fill="#ffe1cc" r="45"/><path d="m121 346c0-24.814-20.186-45-45-45v90c24.814 0 45-20.186 45-45z" fill="#ffccb3"/><path d="m76 391c-41.367 0-76 33.647-76 75v46h76 75v-46c0-41.353-33.633-75-75-75z" fill="#6cd9d9"/><path d="m151 466c0-41.353-33.633-75-75-75v121h75z" fill="#52b8cc"/><g fill="#e1e6f0"><path d="m331 0v232.299l-51.301-51.299h-113.699v-181z"/><path d="m346 271h166v180h-166z"/></g></g></svg>