<svg id="Capa_1" enable-background="new 0 0 512 512" height="512" viewBox="0 0 512 512" width="512" xmlns="http://www.w3.org/2000/svg"><g><path d="m0 107.231v397.301h89l13-7.2 17 7.2h74l62-11.2 1 .175 21-199.175-21-187.101z" fill="#fbf4f4"/><path d="m256 107.231v386.276l63 11.025h74l15-8.2 15 8.2h89v-397.301z" fill="#e9e9ee"/><path d="m139 7.468v234h117l27-119.136-27-114.864z" fill="#e9e9ee"/><path d="m256 7.468h117v234h-117z" fill="#d0d0d5"/><path d="m193 504.532h63l6-35.2-6-35.864h-63z" fill="#e9e9ee"/><path d="m256 433.468h63v71.064h-63z" fill="#d0d0d5"/><path d="m89 451.468h30v53.064h-30z" fill="#956641"/><path d="m393 451.468h30v53.064h-30z" fill="#895d3c"/><circle cx="408" cy="421.468" fill="#00a78e" r="45"/><circle cx="104" cy="421.468" fill="#00da80" r="45"/><path d="m301 346.468h30v40h-30z" fill="#4b8dff"/><path d="m181 346.468h30v40h-30z" fill="#4bc0ff"/><g fill="#4b8dff"><path d="m421 276.468h30v40h-30z"/><path d="m361 276.468h30v40h-30z"/><path d="m301 276.468h30v40h-30z"/></g><g fill="#4bc0ff"><path d="m181 276.468h30v40h-30z"/><path d="m121 276.468h30v40h-30z"/><path d="m61 276.468h30v40h-30z"/></g><path d="m241 71.513v36h-36v30h36v36h15l10-51.181-10-50.819z" fill="#ff6378"/><path d="m271 107.513v-36h-15v102h15v-36h36v-30z" fill="#c30047"/><path d="m241 386.468h15l4-19.136-4-20.864h-15z" fill="#4bc0ff"/><path d="m256 346.468h15v40h-15z" fill="#4b8dff"/><path d="m241 276.468v40h15l3-19.136-3-20.864z" fill="#4bc0ff"/><path d="m256 276.468h15v40h-15z" fill="#4b8dff"/></g></svg>