<svg height="512pt" viewBox="-69 0 512 512" width="512pt" xmlns="http://www.w3.org/2000/svg"><path d="m330.996094 0h-144.09375l-20.015625 256 20.015625 256h144.09375c23.644531 0 42.8125-19.167969 42.8125-42.808594v-426.382812c0-23.640625-19.167969-42.808594-42.8125-42.808594zm0 0" fill="#cde1e6"/><path d="m42.808594 0c-23.640625 0-42.808594 19.167969-42.808594 42.808594v426.382812c0 23.640625 19.167969 42.808594 42.808594 42.808594h144.09375v-512zm0 0" fill="#e1ebf0"/><g fill="#5ecef4"><path d="m112.199219 164.40625c31.878906 0 57.8125-25.933594 57.8125-57.8125 0-31.875-25.933594-57.808594-57.8125-57.808594-31.875 0-57.808594 25.933594-57.808594 57.808594 0 31.878906 25.933594 57.8125 57.808594 57.8125zm0 0"/><path d="m112.199219 198.191406c-31.875 0-57.808594 25.929688-57.808594 57.808594s25.933594 57.808594 57.808594 57.808594c31.878906 0 57.8125-25.929688 57.8125-57.808594s-25.933594-57.808594-57.8125-57.808594zm0 0"/><path d="m112.199219 347.59375c-31.875 0-57.808594 25.933594-57.808594 57.8125 0 31.875 25.933594 57.808594 57.808594 57.808594 31.878906 0 57.8125-25.933594 57.8125-57.808594 0-31.878906-25.933594-57.8125-57.8125-57.8125zm0 0"/></g><path d="m261.605469 164.40625c31.875 0 57.808593-25.933594 57.808593-57.8125 0-31.875-25.933593-57.808594-57.808593-57.808594s-57.808594 25.933594-57.808594 57.808594c0 31.878906 25.933594 57.8125 57.808594 57.8125zm0 0" fill="#2682ff"/><path d="m261.605469 313.808594c31.878906 0 57.8125-25.929688 57.8125-57.808594s-25.933594-57.808594-57.8125-57.808594c-31.875 0-57.808594 25.929688-57.808594 57.808594s25.933594 57.808594 57.808594 57.808594zm0 0" fill="#2682ff"/><path d="m261.605469 347.59375c-31.875 0-57.808594 25.933594-57.808594 57.8125 0 31.875 25.933594 57.808594 57.808594 57.808594s57.808593-25.933594 57.808593-57.808594c0-31.878906-25.933593-57.8125-57.808593-57.8125zm0 0" fill="#2682ff"/></svg>