<?xml version="1.0" encoding="iso-8859-1"?>
<!-- Generator: Adobe Illustrator 19.0.0, SVG Export Plug-In . SVG Version: 6.00 Build 0)  -->
<svg xmlns="http://www.w3.org/2000/svg" xmlns:xlink="http://www.w3.org/1999/xlink" version="1.1" id="Layer_1" x="0px" y="0px" viewBox="0 0 512 512" style="enable-background:new 0 0 512 512;" xml:space="preserve" width="512" height="512">
<g>
	<path style="fill:#D3D3D8;" d="M482,64.499V512H75c-24.901,0-45-20.101-45-45v-30l165-265.701l64.501-103.2L482,64.499z"/>
	<polygon style="fill:#BABAC0;" points="482,64.499 482,512 195,512 195,171.299 259.501,68.099  "/>
	<path style="fill:#ECECF1;" d="M452,0l-60,90v362H0V75C0,33.6,33.6,0,75,0H452z"/>
	<polygon style="fill:#D3D3D8;" points="452,0 392,90 392,452 195,452 195,0  "/>
	<rect x="240" y="60" style="fill:#678D98;" width="92" height="30"/>
	<rect x="240" y="120" style="fill:#678D98;" width="92" height="30"/>
	<rect x="240" y="180" style="fill:#678D98;" width="92" height="30"/>
	<rect x="60" y="241" style="fill:#8EBAC5;" width="272" height="30"/>
	<rect x="60" y="301" style="fill:#8EBAC5;" width="272" height="30"/>
	<rect x="60" y="362" style="fill:#8EBAC5;" width="272" height="30"/>
	<rect x="195" y="241" style="fill:#678D98;" width="137" height="30"/>
	<rect x="195" y="301" style="fill:#678D98;" width="137" height="30"/>
	<rect x="195" y="362" style="fill:#678D98;" width="137" height="30"/>
	<path style="fill:#ECECF1;" d="M452,0c-33.137,0-60,26.862-60,60v30h60v392c0,16.567,13.431,30,30,30s30-13.433,30-30V90V60   C512,26.862,485.137,0,452,0z"/>
	<path style="fill:#8EBAC5;" d="M195,150.3c-13.5-18.301-35.4-30.3-60-30.3c-41.4,0-75,33.6-75,75v15h150v-15   C210,178.2,204.6,162.599,195,150.3z"/>
	<path style="fill:#678D98;" d="M210,195v15h-15v-59.7C204.6,162.599,210,178.2,210,195z"/>
	<path style="fill:#8EBAC5;" d="M135,150c-24.814,0-45-20.186-45-45s20.186-45,45-45s45,20.186,45,45S159.814,150,135,150z"/>
</g>















</svg>
