<svg id="Capa_1" enable-background="new 0 0 482 482" height="512" viewBox="0 0 482 482" width="512" xmlns="http://www.w3.org/2000/svg"><g><path d="m155.734 14.29c-47.244 0-91.933 21.446-121.49 58.301-22.165 27.638-34.244 62.006-34.244 97.433v146.266l120 75 51-73.618 16-166.382-16-137h-15.266z" fill="#956641"/><path d="m248.674 14.29h-77.674v303.382l138.817-200.382c25.316-46.412-8.276-103-61.143-103z" fill="#895d3c"/><path d="m156 212.29h-17.875c-28.788 0-53.867 23.337-53.867 52.125-.001 20.915 10.665 31.652 22.742 46.875v156.42h64l18-127.419-18-172.939z" fill="#ffcfbc"/><path d="m280.876 286.193h25.285l41.677-29.978-34.365-53.376-3.656-85.548h-122.107l-16.71 50.06v300.359h64v-46.42h40.452l22.667-62.527v-12.473h-17.242c-39.953-1.615-39.823-58.492-.001-60.097z" fill="#ffb89b"/><g fill="#c30047"><path d="m424 285.29h58v30h-58z"/><path d="m420.4 343.665h30v58h-30z" transform="matrix(.47 -.883 .883 .47 -98.136 581.931)"/><path d="m384 403.291h30v57.999h-30z" transform="matrix(.707 -.707 .707 .707 -188.811 408.751)"/></g><path d="m242.213 238.897-21.213-21.213 14.394-14.394-14.394-14.393 21.213-21.213 27.893 27.893v15.427z" fill="#1e3340"/></g></svg>