<svg id="Capa_1" enable-background="new 0 0 512 512" height="512" viewBox="0 0 512 512" width="512" xmlns="http://www.w3.org/2000/svg"><g><g><g><path d="m256 0c-82.705 0-150 68.295-150 151v60c0 82.705 67.295 150 150 150s150-67.295 150-150v-60c0-82.705-67.295-151-150-151z" fill="#ffd9b3"/></g></g><g><g><path d="m406 211v-60c0-82.705-67.295-151-150-151v361c82.705 0 150-67.295 150-150z" fill="#fb9"/></g></g><g><g><path d="m172.709 209.418-13.418-26.836 41.382-20.698-15.278-15.279 21.21-21.21 44.722 44.721z" fill="#353d4d"/></g></g><g><g><path d="m339.291 209.418-78.618-39.302 44.722-44.721 21.21 21.21-15.278 15.279 41.382 20.698z" fill="#1e2533"/></g></g><g><path d="m436.002 339.787h29.997v42.426h-29.997z" fill="#f25a3c" transform="matrix(.707 -.707 .707 .707 -123.171 424.64)"/></g><g><path d="m39.787 346.002h42.426v29.997h-42.426z" fill="#ff7f40" transform="matrix(.707 -.707 .707 .707 -237.399 148.868)"/></g><g><g><path d="m313.905 274.604c-11.836-20.728-34.028-33.604-57.905-33.604s-46.069 12.876-57.905 33.604l-85.957 150.425c11.378 3.387 34.77 12.339 73.81 19.367l24.598-34.763 5.235 39.058-14.524 59.099c18.578 2.637 36.996 4.21 54.743 4.21 55.756 0 111.66-11.746 171.24-38.057z" fill="#f3f5f9"/></g></g><g><g><path d="m313.905 274.604c-11.836-20.728-34.028-33.604-57.905-33.604v271c55.756 0 111.66-11.746 171.24-38.057z" fill="#e1e6f0"/></g></g><g><path d="m240.546 349.633-29.092-7.266-25.507 102.028c9.476 1.705 19.371 3.182 29.833 4.296z" fill="#e1e6f0"/></g></g></svg>