<svg height="512" viewBox="0 0 58 58" width="512" xmlns="http://www.w3.org/2000/svg"><g id="Page-1" fill="none" fill-rule="evenodd"><g id="080---Online-Medical-Checkup" fill-rule="nonzero"><g fill="#84b5cb"><path id="Shape" d="m28 11.367c-4.416-.029-8.662-.248-12.665-.65-2.5463777 5.4085431-3.8889277 11.3051864-3.935 17.283h16.6z"/><path id="Shape" d="m28 57.95v-9.317c-4.043.027-7.938.216-11.629.56 2.986 5.058 7.078 8.336 11.629 8.757z"/><path id="Shape" d="m30 .05v9.317c4.043-.027 7.938-.216 11.629-.56-2.986-5.058-7.078-8.336-11.629-8.757z"/><path id="Shape" d="m37.913 1.4c2.3887389 2.00541782 4.3717214 4.44935372 5.842 7.2 1.8-.2 3.51-.438 5.12-.709-3.1269405-2.95046025-6.8715212-5.16776307-10.962-6.491z"/><path id="Shape" d="m30 48.633v9.317c4.551-.421 8.643-3.7 11.629-8.757-3.692-.344-7.586-.533-11.629-.56z"/><path id="Shape" d="m42.665 10.717c-4 .4-8.249.621-12.665.65v16.633h16.6c-.0460723-5.9778136-1.3886223-11.8744569-3.935-17.283z"/><path id="Shape" d="m46.605 30h-16.605v16.633c4.416.029 8.662.248 12.665.65 2.548103-5.4081545 3.8923628-11.3048151 3.94-17.283z"/><path id="Shape" d="m28 30h-16.6c.0476372 5.9781849 1.391897 11.8748455 3.94 17.283 4-.4 8.249-.621 12.665-.65z"/><path id="Shape" d="m43.755 49.4c-1.4702786 2.7506463-3.4532611 5.1945822-5.842 7.2 4.0903885-1.3229433 7.8349618-3.5399001 10.962-6.49-1.61-.273-3.322-.51-5.12-.71z"/><path id="Shape" d="m48.605 30c-.0586162 6.039243-1.377417 11.9997321-3.872 17.5 2.069.245 4.025.54 5.837.878 4.5582178-5.0611559 7.1809987-11.5704695 7.405-18.378z"/><path id="Shape" d="m14.245 49.4c-1.8.2-3.51.438-5.12.709 3.1269405 2.9504602 6.8715212 5.1677631 10.962 6.491-2.3887389-2.0054178-4.3717214-4.4493537-5.842-7.2z"/><path id="Shape" d="m44.733 10.5c2.494583 5.5002679 3.8133838 11.460757 3.872 17.5h9.37c-.2237677-6.8078778-2.846564-13.3175838-7.405-18.379-1.812.338-3.77.633-5.837.879z"/><path id="Shape" d="m9.4 28c.05861618-6.039243 1.377417-11.9997321 3.872-17.5-2.069-.245-4.025-.54-5.837-.878-4.56003447 5.06044-7.18461736 11.5698306-7.41 18.378z"/><path id="Shape" d="m14.245 8.6c1.4702786-2.75064628 3.4532611-5.19458218 5.842-7.2-4.0903885 1.32294329-7.8349618 3.53990011-10.962 6.49 1.61.273 3.322.51 5.12.71z"/><path id="Shape" d="m13.267 47.5c-2.4928613-5.5006403-3.80995562-11.4611137-3.867-17.5h-9.375c.22238616 6.8072391 2.8433805 13.3168682 7.4 18.379 1.817-.338 3.775-.633 5.842-.879z"/><path id="Shape" d="m28 .05c-4.551.421-8.643 3.7-11.629 8.757 3.692.344 7.586.533 11.629.56z"/></g><path id="Shape" d="m22.5 15h1.5c.5522847 0 1 .4477153 1 1v4c0 .5522847-.4477153 1-1 1h-1.5c-1.3807119 0-2.5-1.1192881-2.5-2.5v-1c0-1.3807119 1.1192881-2.5 2.5-2.5z" fill="#f3d55b"/><path id="Shape" d="m35.5 15h1.5c.5522847 0 1 .4477153 1 1v4c0 .5522847-.4477153 1-1 1h-1.5c-1.3807119 0-2.5-1.1192881-2.5-2.5v-1c0-1.3807119 1.1192881-2.5 2.5-2.5z" fill="#f3d55b" transform="matrix(-1 0 0 -1 71 36)"/><path id="Shape" d="m20.544 33.418-1.46-1.54c-2.5655815-3.0520806-4.007073-6.8915873-4.084-10.878 0-2.209139 1.790861-4 4-4h1v2h-1c-1.1045695 0-2 .8954305-2 2 .0875694 3.4966153 1.3488826 6.8621132 3.581 9.555l1.419 1.488z" fill="#2980ba"/><path id="Shape" d="m37.4 33.472-1.343-1.483c.4874051-.4431463.9413138-.9217893 1.358-1.432 2.2339789-2.6928876 3.496747-6.0592126 3.585-9.557 0-1.1045695-.8954305-2-2-2h-1v-2h1c2.209139 0 4 1.790861 4 4-.0729114 3.9633953-1.4975761 7.7829645-4.038 10.826-.4791227.5866473-1.0012306 1.1368327-1.562 1.646z" fill="#2980ba"/><path id="Shape" d="m29 41c-.5522847 0-1 .4477153-1 1v6c0 .5522847.4477153 1 1 1s1-.4477153 1-1v-6c0-.5522847-.4477153-1-1-1z" fill="#2980ba"/><path id="Shape" d="m37.4 33.4c.2090619.1999269.3197842.4815738.3028428.7703481-.0169415.2887744-.1598374.5555423-.3908428.7296519-1.6068352 1.3221323-3.4907657 2.2654647-5.512 2.76-.4622656.0986158-.7945061.5043645-.8.977v2.363c0 .5522847-.4477153 1-1 1h-2c-.5522847 0-1-.4477153-1-1v-2.363c-.0054939-.4726355-.3377344-.8783842-.8-.977-2.0205283-.4948155-3.9037475-1.438134-5.51-2.76-.2310054-.1741096-.3739013-.4408775-.3908428-.7296519-.0169414-.2887743.0937809-.5704212.3028428-.7703481l1.44-1.44c.3481501-.3538042.9050317-.3936427 1.3-.093.4076788.3239199.8370118.6196084 1.285.885 2.674982 1.6666096 6.065018 1.6666096 8.74 0 .4479882-.2653916.8773212-.5610801 1.285-.885.3949683-.3006427.9518499-.2608042 1.3.093z" fill="#285680"/></g></g></svg>