<svg id="_x31__x2C_5px" enable-background="new 0 0 36 36" height="512" viewBox="0 0 36 36" width="512" xmlns="http://www.w3.org/2000/svg"><path d="m8.377 4.167c6.917 0 11.667-3.583 15-3.583s10.333 1.916 10.333 17.249-9.417 17.583-13.083 17.583c-17.167.001-24.5-31.249-12.25-31.249z" fill="#efefef"/><path d="m31.5 6c-.827 0-1.5-.673-1.5-1.5s.673-1.5 1.5-1.5 1.5.673 1.5 1.5-.673 1.5-1.5 1.5zm0-2c-.275 0-.5.224-.5.5s.225.5.5.5.5-.224.5-.5-.225-.5-.5-.5z" fill="#a4afc1"/><path d="m28.25 20.5-.499 2.622c-.326 1.548-1.12 2.959-2.274 4.041-1.431 1.341-3.318 2.088-5.279 2.088h-4.395c-1.961 0-3.848-.746-5.279-2.088-1.154-1.082-1.948-2.493-2.274-4.041l-.5-2.622 2.441-5.911 5.393-2.339h7.083l3.167 2.417z" fill="#f3f3f1"/><path d="m20.25 26.25h-4.5v-.25c0-1.243 1.007-2.25 2.25-2.25 1.243 0 2.25 1.007 2.25 2.25z" fill="#2fdf84"/><path d="m28.25 20.5c0-6.809-2.409-11.503-3.488-13.375-.249-.433-.823-.503-1.169-.147-1.486 1.758-3.671 2.772-5.973 2.772h-2.566c-3.485 0-6.457 2.56-6.931 6.012-.214 1.56-.373 3.227-.373 4.738l2.509-3.697c1.226-1.806 3.703-2.239 5.469-.955 1.355.985 3.19.985 4.544 0 1.765-1.284 4.243-.851 5.469.955z" fill="#2fdf84"/><path d="m19.125 24.062c-.332-.193-.713-.312-1.125-.312-1.243 0-2.25 1.007-2.25 2.25v.25h2.25v-.25c0-.831.455-1.548 1.125-1.938z" fill="#00b871"/><path d="m10.373 15.762c.474-3.453 3.446-6.012 6.931-6.012h-2.25c-3.485 0-6.457 2.56-6.931 6.012-.214 1.56-.373 3.227-.373 4.738l2.489-3.668c.042-.36.086-.718.134-1.07z" fill="#00b871"/><path d="m10.499 23.122-.499-2.622 2.126-5.15c-.733.268-1.394.755-1.867 1.452l-2.509 3.698.499 2.622c.326 1.548 1.12 2.959 2.274 4.041 1.431 1.341 3.318 2.088 5.279 2.088h2.25c-1.961 0-3.848-.746-5.279-2.088-1.154-1.083-1.948-2.493-2.274-4.041z" fill="#d5dbe1"/><path d="m12.75 17.689h1.5v3.621h-1.5z" transform="matrix(.707 -.707 .707 .707 -9.835 15.257)"/><path d="m11.689 18.75h3.621v1.5h-3.621z" transform="matrix(.707 -.707 .707 .707 -9.835 15.257)"/><path d="m21.75 17.689h1.5v3.621h-1.5z" transform="matrix(.707 -.707 .707 .707 -7.199 21.621)"/><path d="m20.689 18.75h3.621v1.5h-3.621z" transform="matrix(.707 -.707 .707 .707 -7.199 21.621)"/><path d="m20.25 27h-4.5c-.414 0-.75-.336-.75-.75v-.25c0-1.654 1.346-3 3-3s3 1.346 3 3v.25c0 .414-.336.75-.75.75zm-3.664-1.5h2.828c-.206-.582-.762-1-1.414-1s-1.208.418-1.414 1z"/><path d="m28.25 21.25c-.244 0-.479-.119-.621-.329l-2.509-3.697c-.478-.704-1.202-1.172-2.04-1.319-.84-.148-1.68.049-2.366.549-1.623 1.181-3.805 1.181-5.428 0-.688-.501-1.529-.695-2.366-.549-.838.146-1.563.615-2.04 1.319l-2.509 3.697c-.185.273-.523.392-.842.296-.314-.097-.529-.387-.529-.717 0-1.372.128-3 .38-4.84.522-3.797 3.821-6.66 7.675-6.66h2.565c2.086 0 4.054-.914 5.399-2.506.366-.379.819-.54 1.288-.482.465.058.867.328 1.104.739 2.348 4.072 3.589 8.827 3.589 13.749 0 .33-.215.62-.529.717-.074.022-.148.033-.221.033zm-5.718-6.893c.267 0 .536.023.806.07 1.242.217 2.316.911 3.024 1.955l1.013 1.493c-.356-3.713-1.466-7.258-3.263-10.375-1.578 1.893-3.964 3-6.492 3h-2.565c-3.107 0-5.769 2.306-6.188 5.364-.096.699-.173 1.366-.231 1.997l1.003-1.479c.708-1.043 1.782-1.738 3.024-1.955 1.248-.215 2.487.073 3.507.814 1.096.796 2.566.796 3.662 0 .798-.581 1.734-.884 2.7-.884z"/><path d="m20.197 30h-4.395c-2.159 0-4.217-.813-5.792-2.29-1.273-1.193-2.136-2.727-2.496-4.434l-.499-2.372c-.085-.405.175-.803.58-.888.398-.088.803.173.889.58l.499 2.372c.296 1.405 1.006 2.667 2.053 3.648 1.297 1.215 2.989 1.885 4.767 1.885h4.395c1.777 0 3.47-.669 4.767-1.885 1.047-.981 1.757-2.243 2.053-3.648l.499-2.371c.086-.406.49-.667.889-.58.405.085.665.483.58.888l-.499 2.372c-.36 1.708-1.223 3.241-2.496 4.434-1.577 1.476-3.635 2.289-5.794 2.289z"/></svg>