<svg id="_x31__x2C_5px" enable-background="new 0 0 36 36" height="512" viewBox="0 0 36 36" width="512" xmlns="http://www.w3.org/2000/svg"><path d="m8.377 31.833c6.917 0 11.667 3.583 15 3.583s10.333-1.916 10.333-17.249-9.417-17.584-13.083-17.584c-17.167 0-24.5 31.25-12.25 31.25z" fill="#efefef"/><path d="m31.5 7c-.827 0-1.5-.673-1.5-1.5s.673-1.5 1.5-1.5 1.5.673 1.5 1.5-.673 1.5-1.5 1.5zm0-2c-.275 0-.5.224-.5.5s.225.5.5.5.5-.224.5-.5-.225-.5-.5-.5z" fill="#a4afc1"/><path d="m27.25 15.22v4.09c0 .74-.08 1.47-.23 2.16-.31 1.36-.95 2.81-1.92 4.09l-1.42-1.04c-3.42-2.36-7.94-2.36-11.36 0l-1.41 1.04c-.93-1.21-1.59-2.63-1.93-4.09-.15-.69-.23-1.42-.23-2.16v-4.06l1.62-.31c2.03-.44 3.84-1.57 5.13-3.19 1.96 1.63 4.35 2.65 6.88 2.94z" fill="#f3f3f1"/><path d="m25.1 25.56c-1.56 2.07-3.95 3.69-7.1 3.69-3 0-5.47-1.52-7.09-3.69l1.41-1.04c3.42-2.36 7.94-2.36 11.36 0z" fill="#2fdf84"/><path d="m27.25 14.08v1.14l-4.87-.53c-2.53-.29-4.92-1.31-6.88-2.94-1.29 1.62-3.1 2.75-5.13 3.19l-1.62.31c0-.68 0-1.17 0-1.17 0-5.24 5.07-7.33 9.25-7.33s9.25 2.09 9.25 7.33z" fill="#2fdf84"/><path d="m8.75 22.31c-1.517 0-2.75-1.233-2.75-2.75s1.233-2.75 2.75-2.75h.75l.329 5.388-.743.096c-.112.014-.224.016-.336.016z" fill="#f3f3f1"/><path d="m27.25 22.31c-.112 0-.224-.002-.336-.016l-.743-.096.329-5.388h.75c1.517 0 2.75 1.233 2.75 2.75s-1.233 2.75-2.75 2.75z" fill="#f3f3f1"/><g fill="#d5dbe1"><path d="m11.23 21.47c-.15-.69-.23-1.42-.23-2.16v-4.06l-.63-.31-1.62.31v4.06c0 .74.08 1.47.23 2.16.34 1.46 1 2.88 1.93 4.09l1.41-1.04c.035-.024.073-.04.109-.063-.547-.936-.957-1.95-1.199-2.987z"/><path d="m8.25 19.56c0-.974.511-1.825 1.277-2.314l-.027-.436h-.75c-1.517 0-2.75 1.233-2.75 2.75s1.233 2.75 2.75 2.75c.112 0 .224-.002.336-.016l.743-.096-.01-.165c-.924-.443-1.569-1.381-1.569-2.473z"/><path d="m28.723 17.246c-.427-.273-.93-.436-1.473-.436h-.75l-.329 5.388.743.096c.112.014.224.016.336.016.424 0 .822-.105 1.181-.277z"/></g><path d="m13.16 25.56 1.41-1.04c1.386-.956 2.954-1.505 4.555-1.686-2.349-.266-4.771.283-6.805 1.686l-1.41 1.04c1.62 2.17 4.09 3.69 7.09 3.69.39 0 .767-.026 1.133-.073-2.496-.325-4.559-1.723-5.973-3.617z" fill="#00b871"/><path d="m11 14.08c0-4.777 4.213-6.93 8.125-7.274-.379-.033-.756-.056-1.125-.056-4.18 0-9.25 2.09-9.25 7.33v1.17l1.62-.31c.213-.046.422-.104.63-.165 0-.421 0-.695 0-.695z" fill="#00b871"/><path d="m8.75 22.31c-1.517 0-2.75-1.233-2.75-2.75s1.233-2.75 2.75-2.75v1.5c-.689 0-1.25.561-1.25 1.25 0 .708.61 1.262 1.307 1.25.029 0 .059-.001.088-.005l.191 1.488c-.112.015-.224.017-.336.017z"/><path d="m27.25 22.31c-.112 0-.224-.002-.336-.016l.191-1.488c.047.007.097.004.145.004.689 0 1.25-.561 1.25-1.25s-.561-1.25-1.25-1.25v-1.5c1.517 0 2.75 1.233 2.75 2.75s-1.233 2.75-2.75 2.75z"/><path d="m18 30c-5.377 0-8.822-4.333-9.747-8.359-.168-.751-.253-1.533-.253-2.33v-5.234c0-5.549 5.184-8.077 10-8.077s10 2.528 10 8.077v5.234c0 .797-.085 1.579-.252 2.325-.926 4.031-4.371 8.364-9.748 8.364zm0-22.5c-4.094 0-8.5 2.058-8.5 6.577v5.234c0 .687.072 1.359.215 1.998.796 3.461 3.728 7.191 8.285 7.191s7.489-3.73 8.286-7.195c.142-.635.214-1.307.214-1.994v-5.234c0-4.519-4.406-6.577-8.5-6.577z"/><path d="m27.165 15.995-4.87-.557c-2.439-.278-4.739-1.193-6.697-2.656-1.35 1.446-3.121 2.463-5.06 2.894l-1.375.306-.326-1.464 1.375-.306c1.85-.411 3.52-1.452 4.702-2.931.126-.158.31-.258.511-.278.201-.018.4.041.556.17 1.85 1.542 4.092 2.501 6.484 2.774l4.87.557z"/><circle cx="13.5" cy="18.5" r="1.5"/><circle cx="22.5" cy="18.5" r="1.5"/><path d="m24.704 26.138-1.45-1c-3.144-2.17-7.366-2.168-10.508 0l-1.441.991-.85-1.236 1.44-.99c3.65-2.519 8.558-2.52 12.21.001l1.45 1z"/><path d="m22.259 21.125h5.483v1.5h-5.483z" transform="matrix(.73 -.684 .684 .73 -8.2 23)"/><path d="m10.25 19.134h1.5v5.483h-1.5z" transform="matrix(.684 -.73 .73 .684 -12.482 14.939)"/></svg>