<svg id="LINE" height="512" viewBox="0 0 36 36" width="512" xmlns="http://www.w3.org/2000/svg"><path d="m1.063 15.31c3.655 5.872 3.123 11.798 4.885 14.628s7.088 7.76 20.105-.343 9.951-17.286 8.014-20.399c-9.072-14.574-39.477-4.285-33.004 6.114z" fill="#efefef"/><path d="m32.75 4.806c-.827 0-1.5-.673-1.5-1.5s.673-1.5 1.5-1.5 1.5.673 1.5 1.5-.673 1.5-1.5 1.5zm0-2c-.275 0-.5.224-.5.5s.225.5.5.5.5-.224.5-.5-.225-.5-.5-.5z" fill="#a4afc1"/><circle cx="23" cy="23" fill="#2fdf84" r="4.25"/><path d="m9.75 19.25 9.34-9.34c.78-.78 2.04-.78 2.82 0l1.18 1.18c.78.78.78 2.04 0 2.82l-1.71 1.71-7.573 7.573z" fill="#f3f3f1"/><path d="m24.13 27.09c-.36.11-.74.16-1.13.16-2.35 0-4.25-1.9-4.25-4.25s1.9-4.25 4.25-4.25c.39 0 .77.05 1.13.16-1.81.48-3.13 2.13-3.13 4.09s1.32 3.61 3.13 4.09z" fill="#00b871"/><path d="m21.35 9.91-9.34 9.34 2.92 2.83-1.11 1.11-4.06-3.94 9.34-9.34c.69-.69 1.76-.77 2.54-.24-.1.07-.2.15-.29.24z" fill="#d5dbe1"/><path d="m23 28c-2.757 0-5-2.243-5-5s2.243-5 5-5 5 2.243 5 5-2.243 5-5 5zm0-8.5c-1.93 0-3.5 1.57-3.5 3.5s1.57 3.5 3.5 3.5 3.5-1.57 3.5-3.5-1.57-3.5-3.5-3.5z"/><path d="m26.966 24.797h1.5v5.839h-1.5z" transform="matrix(.707 -.707 .707 .707 -11.48 27.718)"/><path d="m11 16.257h1.5v9.985h-1.5z" transform="matrix(.707 -.707 .707 .707 -11.585 14.533)"/><path d="m20.973 7.875h6.803v1.5h-6.803z" transform="matrix(.707 -.707 .707 .707 1.041 19.762)"/><path d="m12.596 21.525h4.258v1.5h-4.258z" transform="matrix(.707 -.707 .707 .707 -11.438 16.936)"/><path d="m9.75 20.311-1.061-1.061 9.87-9.87c1.07-1.07 2.811-1.07 3.881 0l1.18 1.18c1.07 1.07 1.07 2.811 0 3.881l-2.32 2.32-1.061-1.061 2.32-2.32c.485-.485.485-1.274 0-1.76l-1.18-1.18c-.484-.485-1.275-.485-1.76 0z"/><path d="m6.775 22.25h6.45v1.5h-6.45z" transform="matrix(.707 -.707 .707 .707 -13.335 13.808)"/><path d="m7.5 21.879h1.5v5.742h-1.5z" transform="matrix(.707 -.707 .707 .707 -15.085 13.083)"/><path d="m16.25 11.543h1.5v2.914h-1.5z" transform="matrix(.707 -.707 .707 .707 -4.213 15.828)"/><path d="m14.75 13.336h1.5v4.328h-1.5z" transform="matrix(.707 -.707 .707 .707 -6.42 15.5)"/><path d="m12.25 15.543h1.5v2.914h-1.5z" transform="matrix(.707 -.707 .707 .707 -8.213 14.172)"/></svg>