<svg height="503pt" viewBox="0 0 503.79518 503" width="503pt" xmlns="http://www.w3.org/2000/svg"><path d="m484.695312 8.023438 11.476563 11.472656c10.164063 10.167968 10.164063 26.652344 0 36.820312l-37.9375 37.933594-48.289063-48.292969 37.933594-37.933593c10.164063-10.167969 26.648438-10.167969 36.816406 0zm0 0" fill="#894b9d"/><path d="m470.125 130.652344-18.917969 18.917968-10.066406 10.152344h-.085937l-21.261719 21.261719-10.066407 10.152344h-.085937l-48.164063 48.164062v.085938l-10.152343 10.066406-16.75 16.75v.085937l-10.152344 10.152344h-.085937l-21.175782 21.175782v.085937l-10.152344 10.152344h-.085937l-47.816406 47.816406c-3.242188 3.25-7.644531 5.074219-12.238281 5.074219-4.589844 0-8.992188-1.824219-12.234376-5.074219l-72.113281-72.113281c-3.25-3.242188-5.078125-7.644532-5.078125-12.238282 0-4.589843 1.828125-8.992187 5.078125-12.234374l225.019531-225.019532c3.253907-3.257812 7.671876-5.089844 12.277344-5.089844 4.609375 0 9.023438 1.832032 12.28125 5.089844l72.027344 72.027344c3.257812 3.253906 5.089844 7.671875 5.089844 12.277344 0 4.609375-1.832032 9.023437-5.089844 12.28125zm0 0" fill="#9fc9d3"/><path d="m209.117188 303.75c-2.304688.007812-4.511719-.910156-6.136719-2.542969l-17.613281-17.605469c-3.257813-3.253906-5.085938-7.671874-5.085938-12.277343 0-4.601563 1.828125-9.019531 5.085938-12.273438l43.96875-43.972656c2.195312-2.195313 5.394531-3.054687 8.390624-2.253906 3 .800781 5.34375 3.140625 6.148438 6.140625.808594 2.996094-.046875 6.199218-2.242188 8.394531l-43.996093 43.960937 17.617187 17.617188c2.480469 2.480469 3.222656 6.214844 1.878906 9.457031-1.34375 3.242188-4.507812 5.355469-8.015624 5.355469zm0 0" fill="#fff"/><path d="m168.472656 303.519531 32.195313 32.195313-127.773438 127.777344-32.199219-32.199219zm0 0" fill="#894b9d"/><path d="m37.296875 410.640625 56.25 56.25c6.777344 6.777344 6.777344 17.765625 0 24.546875l-7.652344 7.652344c-6.777343 6.777344-17.765625 6.777344-24.542969 0l-56.253906-56.253906c-6.777344-6.777344-6.777344-17.765626 0-24.542969l7.652344-7.652344c6.777344-6.777344 17.769531-6.777344 24.546875 0zm0 0" fill="#955ba5"/><g fill="#2c2f38"><path d="m451.207031 149.570312-10.066406 10.152344h-.085937c-1.683594-.351562-3.226563-1.199218-4.425782-2.429687l-53.890625-53.804688c-2.203125-2.199219-3.0625-5.410156-2.257812-8.414062.808593-3.007813 3.15625-5.355469 6.164062-6.164063 3.003907-.804687 6.214844.054688 8.414063 2.257813l53.804687 53.890625c1.242188 1.214844 2.0625 2.796875 2.34375 4.511718zm0 0"/><path d="m392.890625 207.886719-10.152344 10.152343c-1.671875-.335937-3.210937-1.148437-4.425781-2.34375l-53.890625-53.890624c-2.476563-2.121094-3.554687-5.449219-2.792969-8.621094.761719-3.167969 3.238282-5.644532 6.40625-6.40625 3.171875-.761719 6.5.316406 8.621094 2.792968l53.890625 53.800782c1.242187 1.21875 2.0625 2.800781 2.34375 4.515625zm0 0"/><path d="m334.574219 266.203125v.085937l-10.152344 10.152344h-.085937c-1.683594-.351562-3.226563-1.199218-4.425782-2.429687l-53.890625-53.804688c-3.402343-3.402343-3.402343-8.917969 0-12.320312 3.402344-3.402344 8.917969-3.402344 12.320313 0l53.890625 53.890625c1.257812 1.167968 2.082031 2.726562 2.34375 4.425781zm0 0"/><path d="m361.476562 239.300781v.085938l-10.152343 10.066406c-1.671875-.335937-3.210938-1.148437-4.425781-2.34375l-26.988282-26.902344c-3.40625-3.402343-3.40625-8.917969 0-12.320312 3.402344-3.402344 8.917969-3.402344 12.320313 0l26.902343 26.988281c1.253907 1.167969 2.082032 2.730469 2.34375 4.425781zm0 0"/><path d="m303.160156 297.617188v.085937l-10.152344 10.152344h-.085937c-1.683594-.351563-3.226563-1.199219-4.425781-2.429688l-26.902344-26.902343c-2.949219-3.441407-2.75-8.574219.453125-11.78125 3.207031-3.203126 8.339844-3.402344 11.78125-.453126l26.988281 26.902344c1.253906 1.167969 2.082032 2.726563 2.34375 4.425782zm0 0"/><path d="m419.792969 180.984375-10.066407 10.152344h-.085937c-1.671875-.335938-3.210937-1.148438-4.425781-2.34375l-26.902344-26.988281c-2.476562-2.121094-3.554688-5.449219-2.792969-8.621094.761719-3.167969 3.238281-5.644532 6.40625-6.40625 3.171875-.761719 6.5.316406 8.621094 2.792968l26.902344 26.902344c1.242187 1.214844 2.0625 2.796875 2.34375 4.511719zm0 0"/></g><path d="m356.183594 113.296875c0 4.792969-3.886719 8.675781-8.679688 8.675781-4.792968 0-8.675781-3.882812-8.675781-8.675781s3.882813-8.679687 8.675781-8.679687c4.792969 0 8.679688 3.886718 8.679688 8.679687zm0 0" fill="#fff"/></svg>